<svg width="124" height="56" viewBox="0 0 124 56" fill="none" xmlns="http://www.w3.org/2000/svg">
<path d="M53.6754 1.00569C62.5002 1.06299 71.8568 0.894857 77.6523 0.574057C90.9644 -0.161786 104.576 -0.194582 107.957 0.500925C116.123 2.18145 120.831 6.47059 122.575 13.8181C124.266 20.9466 124.497 34.5423 123.026 40.4675C121.205 47.8074 116.584 51.8138 107.637 53.8106C100.722 55.3539 94.8042 55.6167 59.9396 55.9284C22.6947 56.2617 15.6092 55.5666 8.91514 50.9238C2.5239 46.491 0.036786 39.2619 0.000496734 25.0118C-0.019376 17.0841 0.55261 13.7163 2.51439 10.218C4.89653 5.96885 9.78954 2.92785 16.4322 1.56775C20.005 0.836049 22.2765 0.801747 53.6754 1.00569Z" fill="#EEE5D3"/>
</svg>
