<svg width="88" height="56" viewBox="0 0 88 56" fill="none" xmlns="http://www.w3.org/2000/svg">
<path d="M1.49618 9.04904C3.27811 3.96551 6.798 1.23257 12.8843 0.207769C15.04 -0.155538 68.5735 -0.00624697 73.5934 0.376913C81.1266 0.951852 85.3209 5.06178 86.9498 13.4643C88.8485 23.2581 88.0659 41.4822 85.4617 48.1206C84.664 50.1544 82.5667 52.898 81.0211 53.9303C78.1557 55.8446 78.065 55.8501 47.4654 55.9704C18.7526 56.0836 13.7444 55.9144 10.1178 54.709C5.04343 53.0223 1.97599 48.7142 0.541106 41.2583C0.0975454 38.9542 0.0050373 36.5774 0.000119093 27.3613C-0.00602867 15.4813 0.222362 12.6833 1.49618 9.04904Z" fill="#C8B99F"/>
</svg>
