<svg width="198" height="56" viewBox="0 0 198 56" fill="none" xmlns="http://www.w3.org/2000/svg">
<path d="M7.24614 5.1873C12.338 2.47915 21.1962 0.915408 34.4325 0.388499C55.9358 -0.467917 161.494 0.210723 171.307 1.26869C182.396 2.46405 189.249 5.04991 193.294 9.56449C197.204 13.9277 197.922 16.9933 197.992 29.607C198.044 39.0352 197.881 40.8929 196.825 43.0062C193.207 50.2444 186.87 53.8947 175.128 55.5045C172.059 55.9253 158.09 56.0163 99.5131 55.9978C34.206 55.977 27.2638 55.917 23.286 55.335C10.762 53.5021 3.38734 48.6939 0.904712 40.7416C-0.0320886 37.7409 -0.1552 35.2162 0.146574 25.2665C0.600946 10.3235 1.29824 8.35102 7.24614 5.1873Z" fill="#EEE5D3"/>
</svg>
