<svg width="76" height="56" viewBox="0 0 76 56" fill="none" xmlns="http://www.w3.org/2000/svg">
<path d="M7.2394 1.41644C9.27064 0.552069 9.69293 0.532068 30.6202 0.309276C42.3419 0.184881 54.2412 0.0488845 57.0631 0.00728606C59.885 -0.0343124 63.0819 0.10649 64.1672 0.320482C71.2239 1.71083 74.6157 7.15184 75.629 18.7062C76.1292 24.4124 76.1221 38.4162 75.6171 42.0393C74.8157 47.7903 73.1504 51.4409 70.3877 53.5041C66.9781 56.05 67.5353 56.0064 38.5136 55.9988C9.90211 55.9912 10.18 56.0112 6.92787 53.7477C4.0323 51.7325 1.8874 47.4471 0.893887 41.6913C0.234524 37.8703 -0.104367 29.5826 0.0285052 20.5189C0.170324 10.8633 0.503687 8.77419 2.40284 5.64191C3.81629 3.3108 4.79244 2.458 7.2394 1.41644Z" fill="#EEE5D3"/>
</svg>
