<svg width="166" height="56" viewBox="0 0 166 56" fill="none" xmlns="http://www.w3.org/2000/svg">
<path d="M87.5929 0.417251C103.692 0.374207 117.011 0.234108 117.189 0.105758C117.368 -0.0229847 123.463 -0.0358909 130.732 0.0764162C148.6 0.352292 153.399 1.31805 159.369 5.84008C162.422 8.15196 164.127 10.9463 165.332 15.6139C166.48 20.0585 166.065 37.9728 164.724 41.8597C161.964 49.8625 157.401 53.4027 147.264 55.407C144.255 56.0022 139.083 56.0534 91.0789 55.9673C39.0439 55.8734 29.1335 55.6684 21.9361 54.534C8.54185 52.4236 2.24961 46.4987 0.56635 34.4134C-0.297404 28.2079 -0.146261 16.3159 0.836453 13.1565C2.97084 6.2979 8.21313 3.20927 20.3925 1.63384C26.0238 0.90521 46.9671 0.526036 87.5929 0.417251Z" fill="#C8B99F"/>
</svg>
