<svg width="201" height="56" viewBox="0 0 201 56" fill="none" xmlns="http://www.w3.org/2000/svg">
<path d="M7.41586 4.42427C11.4192 1.83253 15.6497 0.77621 24.7347 0.100069C29.0678 -0.222508 168.542 0.30705 173.802 0.666175C187.354 1.591 195.291 5.02095 198.607 11.3843C200.507 15.0304 201.262 21.9979 200.92 32.724C200.657 40.9763 200.36 43.3536 199.373 45.1194C196.09 50.9977 191.051 53.7551 180.705 55.3358C176.768 55.9372 169.673 56.0012 106.99 56C32.841 55.9988 30.5323 55.946 19.8552 54.0089C10.8141 52.3682 5.24238 49.2342 1.57994 43.729C0.0519457 41.432 -0.00591089 40.8905 0.000362802 28.8317C0.00872772 12.4613 1.23419 8.42669 7.41586 4.42427Z" fill="#D3B0A0"/>
</svg>
