<svg width="445" height="316" viewBox="0 0 445 316" fill="none" xmlns="http://www.w3.org/2000/svg">
<path d="M134 199C97.6 283 29.5 311.667 0 315.5V0H266.5C211.5 0 179.5 94 134 199Z" fill="#A9AB7A"/>
<path d="M167.538 -43.1876C168.976 -62.3486 181.806 -80.6759 202.427 -93.029C207.324 -95.9622 213.817 -98.7556 222.296 -101.577C258.251 -113.54 291.601 -105.202 321.885 -76.679C331.424 -67.6943 333.712 -63.5905 330.227 -61.7107C329.167 -61.1387 322.289 -60.7681 314.943 -60.8883C299.298 -61.1422 280.665 -59.5373 268.261 -56.8684C257.619 -54.5776 243.374 -48.4635 239.943 -44.7123C236.838 -41.3175 237.132 -37.265 240.673 -34.6382C244.434 -31.8483 248.984 -32.0262 262.449 -35.4926C275.748 -38.9172 288.641 -40.7478 297.949 -40.5343C342.987 -39.5035 376.18 -16.2442 384.685 20.2435C386.889 29.6991 386.934 33.8113 384.863 36.4674C383.797 37.8336 381.037 37.0008 368.952 31.6677C360.911 28.1181 350.15 24.2164 345.04 22.9952C326.909 18.6654 289.536 15.7143 283.049 18.1014C279.964 19.2366 278.353 23.0929 279.577 26.4165C281.802 32.4648 284.154 33.2837 313.51 38.2361C337.747 42.3256 350.312 45.8665 363.666 52.3704C381.231 60.9264 390.925 70.8306 396.464 85.8822C402.844 103.219 401.574 117.981 390.813 151.517C385.605 167.752 381.946 182.713 380.87 192.181C379.836 201.272 377.168 207.441 373.722 208.71C372.152 209.287 367.06 209.901 362.407 210.074C353.722 210.396 340.505 213.015 332.263 216.048C316.343 221.907 298.553 215.959 289.013 201.588C283.903 193.892 276.561 173.026 272.22 153.87C266.315 127.807 264.637 124.422 258.708 126.604C254.852 128.023 253.631 132.514 254.139 143.401C255.111 164.186 263.547 194.319 272.981 210.705C276.334 216.528 276.641 217.519 275.711 219.529C274.793 221.519 274.087 221.831 269.917 222.087C252.438 223.164 232.25 216.44 223.841 206.741C218.217 200.253 212.654 187.773 210.138 176C207.324 162.827 207.145 142.883 209.642 120.587C212.103 98.6186 211.436 92.8148 206.444 92.7628C199.167 92.6882 192.119 106.902 190.373 125.168C188.174 148.168 190.126 161.367 199.486 186.802C204.239 199.718 205.09 202.876 204.222 204.374C202.618 207.14 199.565 206.48 184.943 200.202C158.301 188.764 143.725 172.997 140.027 151.614C138.401 142.219 140.413 127.323 145.221 113.142C149.172 101.493 160.663 76.1267 168.747 61.2143C175.74 48.3144 170.059 42.0363 159.075 50.5262C147.769 59.2658 134.658 82.7069 126.249 109.216C118.453 133.792 117.376 133.265 103.762 98.1976C93.6767 72.2185 90.6351 61.5192 89.0583 46.4777C87.4051 30.7121 89.4617 13.1615 94.4921 0.108159C99.3506 -12.4996 111.339 -24.0062 125.071 -29.2417C134.732 -32.9247 142.94 -33.6378 155.38 -31.8742C166.335 -30.321 166.591 -30.5586 167.538 -43.1876Z" fill="#D3B0A0"/>
</svg>
