<svg width="554" height="317" viewBox="0 0 554 317" fill="none" xmlns="http://www.w3.org/2000/svg">
<path d="M79.9793 128C4.37929 132 -4.16662 46 1.50003 0H553L553 197.382C553 192.588 544.279 183 505.479 183C456.979 183 468.479 195.5 413.095 197.382C357.71 199.265 312.979 137.5 252.979 113C192.979 88.5 174.479 123 79.9793 128Z" fill="#C8B99F"/>
<path d="M264.076 45.5C188.878 61.1 172.742 21.6667 174.074 0H553L553.574 84.5C545.574 79 517.274 71.3 468.074 84.5C406.574 101 358.074 84.5 341.574 68C325.074 51.5 303.074 37.5 264.076 45.5Z" fill="#EEE5D3"/>
<path d="M356.051 -64.5426C373.319 -58.6321 371.473 -58.5284 387.265 -66.2889C399.315 -72.2105 401.643 -72.9969 403.293 -71.7032C405.453 -70.0091 406.116 -67.1902 404.76 -65.4614C404.267 -64.8327 400.235 -62.4897 395.8 -60.2532C391.364 -58.0182 385.312 -54.9268 382.35 -53.384L376.967 -50.5796L379.166 -45.941C383.256 -37.3131 390 -9.52165 392.722 9.91497C395.805 31.9423 396.296 43.2208 395.213 67.2816C393.907 96.2763 382.628 141.903 377.717 138.052C376.666 137.229 366.515 94.4161 363.112 76.4533C359.503 57.4037 358.595 40.0398 359.801 13.1567C360.435 -0.987247 363.297 -23.9737 365.748 -34.6201C366.792 -39.1596 367.43 -43.0421 367.165 -43.2472C366.456 -43.7963 336.756 -23.4569 336.63 -22.3361C336.571 -21.8115 338.088 -16.4213 339.999 -10.356C341.911 -4.29071 345.038 9.33886 346.948 19.9317C355.768 68.8391 350.734 132.521 334.342 179.421C330.691 189.869 325.903 198.814 324.536 197.742C322.488 196.137 317.648 162.493 316.317 140.605C314.229 106.298 315.011 79.12 319.615 25.8955L322.716 -9.95736L308.299 3.80838C300.369 11.3795 293.378 18.1632 292.763 18.8826C292.147 19.6027 292.422 22.4973 293.371 25.3155C297.381 37.2053 300.423 82.0914 299.126 110.23C298.554 122.637 292.618 157.07 288.498 171.881C284.104 187.673 274.309 214.48 269.204 224.683C264.169 234.748 258.927 242.281 257.653 241.282C255.475 239.574 254.361 187.44 255.951 161.63C258.483 120.514 267.492 71.6598 277.501 44.7552C278.916 40.9521 280.052 37.3435 280.025 36.736C279.998 36.1294 273.591 42.9682 265.787 51.9334L251.598 68.2341L250.059 81.8973C246.632 112.314 241.271 137.115 233.317 159.343C223.133 187.805 215.262 202.761 195.901 230.446C182.473 249.647 176.066 257.071 174.19 255.601C172.503 254.277 174.477 243.176 180.522 220.011C190.778 180.706 207.315 135.47 222.773 104.437C225.835 98.2884 227.809 93.7531 227.16 94.3591C226.51 94.9651 219.187 102.911 210.886 112.015C185.696 139.643 162.916 160.881 130.185 187.251C100.611 211.08 100.179 211.337 102.225 203.915C103.812 198.168 116.668 174.836 126.243 160.332C138.188 142.237 158.958 119.345 176.879 104.525C190.42 93.3266 214.103 79.134 238.357 67.6828L246.673 63.7559L259.487 47.4125C267.592 37.075 271.993 30.8281 271.463 30.4126C271.003 30.0516 270.186 30.318 269.647 31.0045C267.384 33.8911 225.028 57.7447 186.688 77.7244C167.552 87.6961 117.969 109.704 103.478 114.658C99.3507 116.069 95.5309 116.875 94.9884 116.45C92.9975 114.889 107.594 96.8674 122.778 82.1381C138.478 66.9093 160.811 51.961 181.841 42.6056C210.626 29.7997 232.125 23.7807 276.146 16.1992L286.646 14.3909L298.877 1.10651C309.926 -10.8944 313.081 -14.9066 309.896 -12.9025C307.226 -11.2253 266.255 0.97351 241.375 7.49809C226.452 11.411 205.709 17.0475 195.28 20.0232C174.835 25.8571 138.282 35.2237 131.979 36.2444C129.845 36.5898 127.935 36.4254 127.734 35.8784C127.168 34.3376 132.371 28.2331 139.853 21.662C165.395 -0.773124 199.169 -16.0144 245.023 -25.7976C262.897 -29.6109 302.074 -31.1814 319.023 -28.7626L328.442 -27.4189L340.034 -35.6819C346.41 -40.2271 353.652 -45.0363 356.13 -46.369C360.903 -48.9382 362.247 -50.8709 357.911 -48.9344C356.5 -48.3037 344.782 -46.4161 331.87 -44.7395C311.65 -42.1137 281.65 -39.9681 232.786 -37.6493C226.154 -37.3345 209.46 -36.3321 195.686 -35.4209C181.913 -34.5099 170.37 -33.9787 170.036 -34.2406C168.849 -35.1713 175.918 -40.6855 184.536 -45.5515C211.209 -60.6114 245.879 -71.6193 273.022 -73.6487C305.583 -76.0816 330.237 -73.3777 356.051 -64.5426Z" fill="#A9AB7A"/>
</svg>
