<svg width="1512" height="742" viewBox="0 0 1512 742" fill="none" xmlns="http://www.w3.org/2000/svg">
<path d="M61.5 249C31.9 260.6 8.16667 229.167 0 212V527.5C4.33333 532.333 33 545.9 113 561.5C213 581 318.5 480.5 318.5 435C310.5 253.5 234.5 228 189 212C143.5 196 98.5 234.5 61.5 249Z" fill="#B57B60"/>
<path d="M247.5 323.5C140.3 327.5 81.5 413 72.5 474C54.5 809 589.852 679.311 684.002 638.91C784 596 850.5 506.5 857 461C863.5 415.5 841 307.5 750.32 289.618C659.641 271.735 512.5 323.5 453 333.5C393.5 343.5 381.5 318.5 247.5 323.5Z" fill="#D3B0A0"/>
<path d="M-1 4C39.5 6.66667 127 33.6 153 120C185.5 228 153 306 228.5 303.5C304 301 358.5 237.943 436.5 268.5C485 287.5 520 295.5 652.5 457.5C718.5 525.5 853 568.5 1063.5 541.5C1274 514.5 1293.5 409.5 1512 433.5" stroke="#844A29" stroke-width="7"/>
<path d="M277.574 324.702C320.35 311.319 370.673 306.739 402.889 313.298C413.808 315.522 418.209 317.968 419.771 322.681C420.814 325.83 420.286 327.537 414.171 340.767C396.634 378.707 369.434 417.726 337.176 451.215C292.896 497.184 234.487 528.225 173.575 538.16C156.556 540.936 137.884 541.638 113.988 540.4C76.6598 538.465 73.6442 539.485 45.9067 563.44C24.4498 581.97 12.754 593.503 -4.75568 613.396C-19.7013 630.375 -24.0416 632.866 -26.842 626.068C-27.6443 624.121 -27.3102 622.412 -25.6478 619.961C-18.7741 609.829 2.59947 588.528 35.3344 559.184L72.0934 526.232L84.7303 495.25C96.4688 466.473 98.0162 463.298 106.492 450.621C130.412 414.844 164.485 382.415 202.904 358.864C219.34 348.789 259.898 330.232 277.574 324.702Z" fill="#EEE5D3"/>
<path d="M165.855 166.178C183.433 158.233 199.94 152.264 212.734 149.225C217.105 148.187 221.106 147.509 221.622 147.718C226.09 149.528 227.212 158.072 225.381 176.36C222.594 204.194 215.854 228.714 202.73 258.76C189.434 289.205 178.448 304.421 153.731 326.639C127.205 350.48 104.259 364.338 63.5298 381.108C48.2777 387.389 33.9408 393.644 31.6691 395.01C28.1964 397.097 25.6375 400.584 15.5564 416.962C8.96591 427.67 -0.275144 443.231 -4.98062 451.54C-11.3847 462.853 -14.1112 466.804 -15.8281 467.267C-19.089 468.146 -20.4949 467.314 -22.4712 463.338L-24.2051 459.85L-5.20632 429.78C16.6284 395.219 18.1685 391.711 20.0784 372.198C21.4954 357.717 25.8274 335.359 30.3387 319.244C34.5162 304.325 50.1099 268.309 57.2287 257.136C83.6832 215.622 115.613 188.886 165.855 166.178Z" fill="#EEE5D3"/>
</svg>
