<svg width="175" height="56" viewBox="0 0 175 56" fill="none" xmlns="http://www.w3.org/2000/svg">
<path d="M9.68632 3.72536C13.3444 1.89475 18.9956 0.70888 26.4162 0.214602C29.2867 0.0231915 38.0747 -0.0547939 45.9444 0.0409111C53.8142 0.136616 79.5697 0.311484 103.179 0.429638C126.788 0.548187 148.442 0.821918 151.297 1.03853C163.158 1.93808 170.107 5.10816 172.799 10.8477C175.449 16.4967 175.802 38.2032 173.332 43.5831C171.147 48.3408 167.604 51.1934 161.479 53.126C157.457 54.3954 154.062 54.8676 145.75 55.3135C135.242 55.8767 29.5772 56.2725 24.0621 55.7688C14.0809 54.8578 8.13975 52.3293 4.2646 47.344C0.732231 42.7998 -0.00371859 39.6257 1.40944e-05 28.9623C0.00623524 12.9737 2.09839 7.52244 9.68632 3.72536Z" fill="#D3B0A0"/>
</svg>
