<svg width="153" height="56" viewBox="0 0 153 56" fill="none" xmlns="http://www.w3.org/2000/svg">
<path d="M19.3162 0.947308C20.9459 0.712722 28.685 0.38212 36.5143 0.211923C55.8633 -0.207922 116.23 0.0405962 122.893 0.567755C141.123 2.00991 148.657 5.96924 151.941 15.8343C153.454 20.3803 153.319 33.9222 151.708 39.1291C148.667 48.9583 141.53 54.0981 128.819 55.6129C125.095 56.0569 32.7641 56.1533 25.4724 55.721C8.69183 54.7266 2.44656 49.9155 0.424954 36.4274C-0.423042 30.7713 0.0667257 18.3232 1.28654 14.5164C2.37915 11.1072 5.21451 7.22465 7.96071 5.37808C10.9173 3.38994 15.9302 1.43418 19.3162 0.947308Z" fill="#C8B99F"/>
</svg>
