<svg width="142" height="56" viewBox="0 0 142 56" fill="none" xmlns="http://www.w3.org/2000/svg">
<path d="M3.80756 10.136C7.55477 4.37021 15.3334 0.9683 26.7093 0.120085C31.1213 -0.20877 51.7741 0.120807 101.873 1.31961C122.76 1.81941 126.915 2.56947 132.846 6.91015C137.695 10.4591 140.256 15.1112 141.589 22.7904C142.38 27.3455 141.968 37.9352 140.878 41.0694C138.948 46.6237 134.516 50.9459 128.592 53.0516C124.693 54.4377 120.376 55.1225 112.361 55.6267C104.604 56.1145 21.2266 56.1287 16.5944 55.643C8.28345 54.7712 3.53439 51.3617 0.858462 44.3453C0.115814 42.3968 -0.00855223 40.3903 0.00043746 30.4776C0.0124237 17.5316 0.421448 15.3459 3.80756 10.136Z" fill="#D3B0A0"/>
</svg>
