<svg width="89" height="56" viewBox="0 0 89 56" fill="none" xmlns="http://www.w3.org/2000/svg">
<path d="M1.02946 9.48603C2.33518 4.01253 5.63493 1.03593 11.3157 0.206923C13.6471 -0.133314 18.6453 -0.0885625 55.4733 0.60221C74.4955 0.958687 76.874 1.18409 80.7427 2.99579C85.3612 5.15841 87.4492 9.12161 88.5666 17.8458C89.1151 22.1275 89.1537 39.299 88.6211 42.1258C87.3188 49.0383 84.1131 52.8791 77.7838 55.1099C75.8778 55.7817 73.7315 55.8446 48.5111 55.9698C30.9035 56.0569 19.8248 55.9543 17.1295 55.6783C6.27514 54.5677 2.16208 51.0393 0.712372 41.5951C-0.374674 34.5138 -0.177207 14.5448 1.02946 9.48603Z" fill="#C8B99F"/>
</svg>
