<svg width="108" height="56" viewBox="0 0 108 56" fill="none" xmlns="http://www.w3.org/2000/svg">
<path d="M39.5648 0.678783C53.2666 0.650243 67.6965 0.504385 71.6313 0.354154C85.56 -0.177003 93.8728 -0.11081 96.6471 0.553533C102.891 2.04831 106.464 6.61903 107.779 14.7921C108.145 17.0682 108.037 29.2206 107.596 35.3404C106.815 46.1681 104.661 50.5917 98.7527 53.5024C93.4812 56.0991 94.7384 56.0302 53.5576 55.9881C16.6147 55.9505 16.254 55.9426 13.3008 55.0959C9.61791 54.0399 7.72168 52.8944 5.47715 50.3682C3.32036 47.9407 2.32181 45.9156 1.38951 42.0789C-0.0838699 36.0134 -0.496551 18.5182 0.693298 12.5632C1.62296 7.91126 3.87651 4.62167 7.44794 2.70356C10.8639 0.869084 13.0112 0.73388 39.5648 0.678783Z" fill="#D3B0A0"/>
</svg>
