<svg width="216" height="56" viewBox="0 0 216 56" fill="none" xmlns="http://www.w3.org/2000/svg">
<path d="M4.96868 5.62384C8.91876 2.54655 14.784 0.931193 24.7778 0.168756C27.0841 -0.00710076 37.5482 -0.0531312 48.0314 0.0668603C58.5146 0.186852 94.8818 0.4111 128.847 0.565712C189.389 0.841102 190.701 0.863137 195.624 1.69914C208.224 3.83932 213.53 8.00124 215.494 17.2874C216.482 21.9612 215.926 38.9224 214.663 42.6048C212.009 50.3429 204.375 54.4403 190.338 55.6607C186.75 55.9726 163.075 56.0604 109.406 55.9612C41.4602 55.8353 32.9905 55.7515 28.2216 55.1575C13.815 53.3619 5.78597 49.1587 1.39598 41.1149C0.167728 38.865 0 36.9507 0 25.1817C-0.000760872 10.3794 0.279067 9.2767 4.96868 5.62384Z" fill="#EEE5D3"/>
</svg>
