<svg width="125" height="56" viewBox="0 0 125 56" fill="none" xmlns="http://www.w3.org/2000/svg">
<path d="M0.91683 10.4484C2.69718 4.34912 6.78095 1.31209 14.6672 0.222839C16.2315 0.00672465 21.337 -0.0634782 26.3236 0.0623258C31.2037 0.185369 51.7666 0.411735 72.0191 0.565145C104.834 0.813598 109.128 0.917313 111.47 1.51833C119.357 3.54145 123.513 7.91816 124.599 15.3453C125.139 19.0378 125.132 32.9342 124.588 37.66C123.792 44.5768 122.615 47.6312 119.64 50.5002C115.986 54.0235 111.406 55.3139 101.522 55.6041C87.395 56.019 22.9594 56.1563 19.2283 55.7793C6.87987 54.5319 1.58984 48.8498 0.337876 35.4882C-0.315171 28.5169 0.0326439 13.478 0.91683 10.4484Z" fill="#EEE5D3"/>
</svg>
