<svg width="410" height="384" viewBox="0 0 410 384" fill="none" xmlns="http://www.w3.org/2000/svg" preserveAspectRatio="none">
<path d="M196.978 2.23074C263.038 2.1962 317.596 1.53222 318.218 0.755019C319.844 -1.27338 347.129 1.08893 358.461 4.24187C383.521 11.2137 398.858 30.7857 405.851 64.7235C407.974 75.0305 408.571 94.3109 409.551 184.474C410.193 243.58 410.14 298.602 409.434 306.746C405.76 349.07 393.405 370.684 367.283 380.48C355.526 384.89 323.28 385.13 251.271 381.348C209.513 379.154 191.385 379.068 155.235 380.891C76.6482 384.856 62.3427 383.568 41.2854 370.626C28.7561 362.927 17.1535 348.578 11.6648 333.994C3.48098 312.251 2.22864 300.267 0.645961 228.611C-0.978203 155.021 0.483137 103.027 4.77326 81.8065C12.7189 42.4974 32.3532 17.8918 64.8626 6.50247C76.745 2.34012 78.1188 2.29599 196.978 2.23074Z" fill="#EEE5D3"/>
</svg>
