<svg width="410" height="384" viewBox="0 0 410 384" fill="none" xmlns="http://www.w3.org/2000/svg" preserveAspectRatio="none">
<path d="M27.0826 31.9495C37.0285 16.7292 56.2279 4.50399 75.6725 1.01301C88.5923 -1.30718 123.479 0.45678 160.301 5.29552C186.325 8.71454 202.728 9.43803 261.509 9.76476C327.795 10.1304 332.32 10.3813 343.664 14.3001C369.617 23.2638 392.461 43.8324 400.937 65.8654C410.552 90.8604 410.95 98.5192 409.175 224.721C408.119 299.732 406.905 313.05 399.343 332.531C394.118 345.993 381.357 361.527 370.591 367.532C352.796 377.459 347.315 377.863 246.862 376.64C205.394 376.136 184.619 376.856 147.419 380.092C95.5333 384.602 77.7523 385.053 62.3579 382.243C34.5786 377.175 13.9223 358.399 5.72631 330.767C-0.126181 311.033 -0.941807 290.869 0.829665 209.659C2.58418 129.314 3.96411 106.934 8.7605 81.0488C11.9458 63.8603 19.5558 43.4687 27.0826 31.9495Z" fill="#EEE5D3"/>
</svg>
