<svg width="410" height="384" viewBox="0 0 410 384" fill="none" xmlns="http://www.w3.org/2000/svg" preserveAspectRatio="none">
<path d="M2.82523 75.1953C11.4373 31.7595 37.0758 7.58863 81.5202 1.00572C97.3542 -1.34066 151.887 0.583008 196.722 5.06839C255.121 10.9126 282.089 11.8765 311.229 9.16078C344.085 6.1014 358.393 8.11001 374.526 18.0525C387.14 25.8284 394.334 35.3838 400.552 52.6202C408.068 73.4572 409.035 89.9175 409.536 205.55L410 312.204L406.409 325.042C397.052 358.495 379.167 376.058 347.992 382.406C335.016 385.046 284.156 384.402 198.278 380.506C174.304 379.417 131.571 378.08 103.315 377.535C48.266 376.473 41.7913 375.449 28.7813 365.778C15.1222 355.622 4.64666 334.068 1.36186 309.36C-1.15701 290.413 0.10243 88.9299 2.82523 75.1953Z" fill="#D3B0A0"/>
</svg>
