<svg width="410" height="384" viewBox="0 0 410 384" fill="none" xmlns="http://www.w3.org/2000/svg" preserveAspectRatio="none">
<path d="M10.1649 41.7631C19.1563 20.3416 33.7715 7.92157 56.5061 2.38298C65.6514 0.154259 80.6201 -0.10942 132.886 1.03816C214.147 2.81993 204.686 2.83003 282.717 0.869075C338.861 -0.544261 350.295 -0.338966 360.646 2.26624C383.333 7.97596 396.36 20.4444 403.284 43.0759C406.699 54.2376 406.989 59.0714 408.343 127.395C409.134 167.258 409.87 220.711 409.981 246.179C410.201 297.202 408.583 312.127 400.569 332.906C395.345 346.452 382.19 362.578 371.114 369.015C346.534 383.295 297.373 387.654 237.468 380.861C217.656 378.614 187.041 377.473 136.85 377.108C57.2244 376.53 53.454 376.029 35.0082 363.545C27.7027 357.206 11.8321 339.224 6.7941 318.004C0.0509345 290.279 -0.31215 282.761 0.127036 179.962C0.590004 71.3042 1.1814 63.1665 10.1649 41.7631Z" fill="#C8B99F"/>
</svg>
