<svg width="410" height="384" viewBox="0 0 410 384" fill="none" xmlns="http://www.w3.org/2000/svg" preserveAspectRatio="none">
<path d="M3.4181 79.0332C10.6294 37.5139 33.8843 10.946 70.733 2.12696C83.8199 -1.00405 134.867 -0.653197 199.364 3.01363C347.626 11.4418 349.291 11.6211 366.127 21.0084C374.888 25.6114 383.387 35.6232 386.541 40.0538C394.994 49.3667 402.665 71.6156 406.66 98.4123C408.92 113.562 411.162 288.567 409.321 306.098C404.633 350.754 386.588 371.499 347.942 376.657C339.688 377.757 309.37 378.501 280.569 378.308C244.727 378.066 213.596 379.052 181.909 381.43C129.738 385.342 90.8415 384.772 72.6243 379.828C45.4199 372.443 22.1513 351.389 12.2019 325.157C5.4778 307.431 3.04017 292.606 1.09733 257.632C-1.19614 216.338 0.359643 96.6466 3.4181 79.0332Z" fill="#D3B0A0"/>
</svg>
