<svg width="410" height="384" viewBox="0 0 410 384" fill="none" xmlns="http://www.w3.org/2000/svg" preserveAspectRatio="none">
<path d="M4.67734 107.626C10.9492 36.7923 26.6771 9.18388 65.3937 1.05268C76.215 -1.21925 295.247 0.524953 319.398 3.07626C352.887 6.61317 371.622 14.8162 385.804 32.1476C405.922 56.7391 409.796 86.3828 409.984 217.245C410.086 288.2 409.745 300.611 407.335 313.282C400.055 351.581 384.321 370.954 352.657 380.602C343.733 383.322 333.521 383.916 294.222 383.997C234.329 384.123 83.4186 379.725 62.9079 377.255C29.3899 373.218 13.7906 358.981 4.4313 323.883C1.28031 312.072 0.739012 305.266 0.129452 269.8C-0.600751 227.444 1.87241 139.326 4.67734 107.626Z" fill="#C8B99F"/>
</svg>
