<svg width="410" height="384" viewBox="0 0 410 384" fill="none" xmlns="http://www.w3.org/2000/svg" preserveAspectRatio="none">
<path d="M27.169 19.1517C35.4097 10.7841 49.0566 4.0653 63.9904 1.02178C69.6402 -0.130644 99.9162 -0.326467 140.142 0.527254C215.209 2.11764 235.586 2.19433 297.257 1.11053C337.609 0.402126 341.285 0.638282 352.898 4.68892C375.096 12.433 388.431 25.5556 397.02 48.1177C403.855 66.068 406.75 83.8428 409.003 121.675C411.01 155.374 409.783 272.618 407.141 299.683C402.277 349.52 384.44 372.285 343.103 381.426C331.566 383.977 309.259 384.338 198.275 383.763C80.7545 383.156 66.0282 382.728 56.9548 379.646C41.3549 374.348 28.0237 364.979 19.3824 353.241C10.3232 340.938 6.29474 331.495 2.49727 313.657C-0.00870605 301.893 -0.231805 290.702 0.1437 195.711C0.591476 82.8135 1.27492 71.368 8.85414 50.1037C14.2447 34.9769 18.2496 28.2097 27.169 19.1517Z" fill="#C8B99F"/>
</svg>
